<svg width="170" height="100" xmlns="http://www.w3.org/2000/svg">
  <title>A.css</title>
  <path fill="#FFF" d="M70.236 82.34h-36.87L27.44 99.59H-.08L37.713.31H65.89l37.79 99.28H76.16l-5.924-17.25zM63.39 62.723L51.8 29.673l-11.587 33.05H63.39z"/>
  <path d="M114.15 99.376c-.622 0-1.16-.2-1.61-.602-.452-.4-.677-.963-.677-1.686 0-.612.216-1.138.647-1.58.43-.44.963-.662 1.595-.662s1.17.218 1.618.655c.446.44.67.97.67 1.59 0 .71-.224 1.27-.67 1.68-.447.41-.97.61-1.573.61zm21.654-5.086c0 .512-.153 1.06-.458 1.64-.306.582-.773 1.136-1.4 1.663-.626.526-1.416.95-2.37 1.27-.952.322-2.025.482-3.22.482-2.537 0-4.52-.74-5.943-2.22-1.425-1.48-2.137-3.463-2.137-5.95 0-1.687.326-3.176.978-4.47.652-1.294 1.595-2.294 2.83-3.002 1.233-.707 2.707-1.06 4.423-1.06 1.063 0 2.04.154 2.927.465s1.64.712 2.257 1.204c.62.492 1.09 1.016 1.42 1.573.33.557.49 1.076.49 1.557 0 .492-.18.908-.55 1.25-.36.34-.81.51-1.33.51-.34 0-.62-.087-.85-.262-.22-.176-.48-.46-.76-.85-.5-.763-1.02-1.335-1.57-1.716-.54-.38-1.24-.572-2.08-.572-1.21 0-2.19.474-2.93 1.422s-1.11 2.245-1.11 3.89c0 .772.1 1.482.29 2.13.19.646.47 1.198.83 1.654.36.457.8.803 1.31 1.04.51.235 1.08.353 1.69.353.82 0 1.53-.19 2.12-.57s1.11-.96 1.56-1.74c.25-.46.52-.82.81-1.08.29-.26.65-.39 1.07-.39.5 0 .92.19 1.25.57s.5.79.5 1.22zm16.808-.286c0 1.134-.276 2.104-.828 2.912-.552.808-1.367 1.42-2.445 1.836-1.08.416-2.39.624-3.94.624-1.48 0-2.74-.226-3.79-.677-1.06-.46-1.83-1.02-2.33-1.7-.51-.68-.76-1.36-.76-2.04 0-.45.16-.84.48-1.16.32-.32.73-.48 1.22-.48.43 0 .76.1.99.31.23.21.45.5.66.89.42.73.92 1.28 1.51 1.64.59.36 1.39.54 2.4.54.82 0 1.5-.18 2.02-.55.52-.37.79-.79.79-1.26 0-.73-.28-1.25-.82-1.58-.55-.33-1.45-.65-2.71-.95-1.42-.35-2.57-.72-3.46-1.11-.89-.39-1.6-.9-2.13-1.53-.53-.63-.8-1.41-.8-2.33 0-.83.24-1.6.74-2.34.49-.73 1.21-1.32 2.17-1.75.95-.44 2.11-.66 3.46-.66 1.06 0 2.02.11 2.87.33.85.22 1.55.52 2.12.89.57.37 1 .78 1.29 1.23.3.45.443.89.443 1.32 0 .47-.16.86-.473 1.16-.315.3-.764.45-1.346.45-.42 0-.78-.12-1.07-.36s-.634-.6-1.015-1.08c-.31-.4-.68-.72-1.1-.96s-.998-.36-1.72-.36c-.74 0-1.36.15-1.85.47-.49.312-.738.71-.738 1.18 0 .43.18.782.54 1.06.36.275.85.503 1.46.684s1.452.4 2.525.66c1.275.31 2.316.683 3.124 1.115.81.43 1.42.94 1.84 1.53.42.58.627 1.25.627 2.002zm16.703 0c0 1.134-.276 2.104-.828 2.912-.552.808-1.367 1.42-2.445 1.836-1.08.416-2.39.624-3.935.624-1.475 0-2.74-.226-3.792-.677-1.053-.46-1.83-1.02-2.332-1.7-.502-.68-.752-1.36-.752-2.04 0-.45.16-.84.49-1.16.32-.32.73-.48 1.22-.48.43 0 .76.1.99.31.23.21.45.5.66.89.42.73.93 1.28 1.51 1.64.59.36 1.39.54 2.4.54.83 0 1.5-.18 2.03-.55.53-.37.79-.79.79-1.26 0-.73-.27-1.25-.82-1.58-.54-.33-1.44-.65-2.7-.95-1.41-.35-2.56-.72-3.45-1.11-.89-.39-1.6-.9-2.13-1.53-.53-.63-.8-1.41-.8-2.33 0-.83.25-1.6.74-2.34.49-.73 1.22-1.32 2.18-1.75.96-.44 2.12-.66 3.47-.66 1.07 0 2.02.11 2.87.33.85.22 1.56.52 2.13.89.57.37 1 .78 1.3 1.23.3.45.45.89.45 1.32 0 .47-.16.86-.47 1.16-.31.3-.76.45-1.34.45-.42 0-.78-.12-1.08-.36s-.633-.6-1.014-1.08c-.31-.4-.677-.72-1.1-.96s-.992-.36-1.714-.36c-.742 0-1.36.15-1.85.47-.49.312-.737.71-.737 1.18 0 .43.18.782.54 1.06.36.275.844.503 1.46.684s1.45.4 2.523.66c1.274.31 2.315.683 3.12 1.115.81.43 1.42.94 1.84 1.53.415.58.624 1.25.624 2.002z" fill="#DDD"/>
</svg>
